<svg id="Layer_2" data-name="Layer 2" xmlns="http://www.w3.org/2000/svg" viewBox="0 0 1283.29 675.82"><path d="M838.88,351.86c-39.46-16.37-73.11-17.89-77.46-33.39-5.64-20.07,30.37-26.19,49.06-21.63,6.4,1.57,46.84,19.21,64.27,41.31.08-14,.25-49.76.11-65.36-39.29.08-150.62-9.1-158.08,59.12a48.35,48.35,0,0,0,15.62,40.56c20.65,18.43,57.91,24.37,91.58,33.95,99.75,28.4,31.93,100.85-19.45,96.63-88.32-14-68.17-26.91-77.55-103.77-58.33,100.56-64.53,116.92-64.44,119.26,0,.66,129.36.83,171,.83C921.39,511.76,946.68,383.61,838.88,351.86Z" transform="translate(-3.61 -93.76)" style="fill:#e61818"/><path d="M487.65,282.81c-25.17,4.18-40.42-1.23-50.56-25.48-22.18,23.61-42.14,49.29-58.43,77.44,50.49,5,165.79-42,185.4-32.87,34.65,24.05,36.45,172.63-17.61,214.66l116.09,2C573.44,446.58,732.58,231.1,487.65,282.81Z" transform="translate(-3.61 -93.76)" style="fill:#e61818"/><path d="M558.63,483.47c.43-2-83.21,8.69-103-30.92-33.34-66.61,97.93-115.78,111.46-129.35-78.78,19.33-214.41,76.72-167.68,165.86,17.83,21.57,57.05,38.19,81.75,30.61-181.08,172-439.27-2.3-368.93-258.56,9.12-32.56,30.34-81.48,77.88-90.89,43.93-8.69,67,38.75,97.12,84.89,22-8.33-13.37-33.36-16-97.74-.88-21.23,2-42.7-1.79-63.61l-23.31,36.15C216.38,176,200.62,54.28,73.75,179-170.43,456.58,284.36,767.86,500.46,521.36,533.29,520.32,555.05,503.12,558.63,483.47Z" transform="translate(-3.61 -93.76)" style="fill:#e61818"/><path d="M209.16,269.59c-31.28-14.27-76.78,1.23-96,51.33,57.37-47,68.92,54.64,144.53,64.55,42.5,8,142.34-33,80.7-100,16,24.3-7.14,66.6-50.11,42.67C259,311.78,222.44,275.65,209.16,269.59Z" transform="translate(-3.61 -93.76)" style="fill:#e61818"/><path d="M1099.72,274.42h.57C1100,274,1099.84,274,1099.72,274.42Z" transform="translate(-3.61 -93.76)" style="fill:#e61818"/><path d="M1286.9,273.87c-20.69,3.21-142.37-.14-142.37-.14l.08,18.74c42.93.7,51.86,22,44.42,50.27-1.26,3.35-2.49,6.72-4,9.89a104.31,104.31,0,0,1-5.55,9.82q-23.45,38.18-47.16,76.17c-.45.72-.9,1.44-1.34,2.17h0c-4.62,5.82-9.15,11.33-13.41,16.4-57.61-115.57-62.45-104.58-50.2-145.28,6.83-22.7,22-13.12,32.65-15.05,0-6.86-1-20.23-.29-22.45l-161.54.69c-.1,8.12.69,31.35.69,31.35C975,297.34,1048.54,455.09,1084,509.87c-63.16,100.78-179.77,299.24-318.84,207-33.37-23.26-8.27-54.28,10.23-50.33.06,0,.83-.17,2.56-9.46-54.83,2.28-109.94.62-164.74,1.4-1.42,1.7.18,4.44,2.27,5.18,20.83-2.47,66.46,51.5,103.35,74.69C905.29,845,1026,657.16,1119.88,495.7c15-22,49.8-85.65,111.24-163.6,7.1-9,14.47-18.05,24-24.43l-1.4.43c.76-.4,1.52-.79,2.28-1.16,7.84-3.8,23.09-12.42,30.78-11.51C1286.77,295.43,1286.7,280.43,1286.9,273.87Z" transform="translate(-3.61 -93.76)" style="fill:#e61818"/><path d="M619.25,571.3C610.9,615,646.4,648.68,685,646.35c35.32-2.12,32.11-26.14,22.53-29.42-2.35-.8-10.66-3.87-11,1.06-.85,13.12,17.56-.45,11.83,11.26-8.18,16.69-54.54,10.82-70.07-28.8-14.6-37.24,9.71-70.4,38.82-54.8,6.91,3.7,18,21.4,16.91,15.86-3-15.3-5.19-23.24-6.1-30.17-.49-3.64-5.17,4.57-7.6,6.68C681.68,539.46,629.1,519.9,619.25,571.3Z" transform="translate(-3.61 -93.76)" style="fill:#e61818"/><path d="M715.6,567.77c-1.69.17-16.88,5.29-19.16,17a74.48,74.48,0,0,0-.6,12.45c.57,9.5,6.75,14.71,12.71,17.54C748,633.54,759.53,563.29,715.6,567.77Zm2,41.85c-7.14-2.08-11.46-10.41-10.87-18.55.12-1.64,4-17,9.93-18.47C738.49,567.24,740.59,616.28,717.65,609.62Z" transform="translate(-3.61 -93.76)" style="fill:#e61818"/><path d="M803.26,616.66a67,67,0,0,0-.19-15.82,35.5,35.5,0,0,1-18.89,10.32c3.93-3.1,8.45-5.89,10.9-10.25,6.72-11.93,9-34.21-8.2-32.56a44,44,0,0,0-23.73,9.89q.2-4.65.38-9.3c-6.26,2.58-12.52,5.17-16.38,8.24l5.3,1.13c-1.09,10.63,3.77,28-5.75,37.46l25.39.3c-6.84-4.26-7.32-13.47-7.88-21.51-2-27.95,48.29-21.7,11.8,21.52Z" transform="translate(-3.61 -93.76)" style="fill:#e61818"/><path d="M944.9,555.38l1,4s9.28.09,13.92.93a1.31,1.31,0,0,1,.83.4,1.34,1.34,0,0,1,.19.84c.09,14.72.32,40.71-.12,42.35-1.11,4.21-7.31,10.13-9.74,12.35,9.57.58,31.66.85,32.92-.42-3.31-2.86-7.85-4.68-9.61-8.68a15.91,15.91,0,0,1-.95-6q-.58-21.6.21-43.19c6.79-.52,16.11-1,23.28,2.42-4.05-5.59-7.11-10.75-7.66-16.77-2.14,6-10,9.2-15.09,9.2a5.32,5.32,0,0,1-1.24-2.54c1.1-5.41,5.17-12.32,6.17-18.88-8.07,7.54-18.77,12.7-26.92,13.36a6.14,6.14,0,0,0,7.28,3.15,30.25,30.25,0,0,1,.61,7.71C952.51,555.59,944.9,555.38,944.9,555.38Z" transform="translate(-3.61 -93.76)" style="fill:#e61818"/><path d="M854.84,560.36c-4.05-5.59-7.11-10.75-7.66-16.77-2.14,6-10,9.2-15.09,9.2a5.32,5.32,0,0,1-1.24-2.54c1.1-5.41,5.17-12.32,6.17-18.88-8.07,7.54-18.77,12.7-26.92,13.36a6.14,6.14,0,0,0,7.28,3.15,30.25,30.25,0,0,1,.61,7.71c-7.48,0-15.09-.21-15.09-.21l1,4s9.28.09,13.92.93a1.31,1.31,0,0,1,.83.4,1.34,1.34,0,0,1,.19.84c.09,14.72.32,40.71-.12,42.35-1.11,4.21-7.31,10.13-9.74,12.35,9.57.58,31.66.85,32.92-.42-3.31-2.86-7.85-4.68-9.61-8.68a15.91,15.91,0,0,1-.95-6q-.58-21.6.21-43.19C838.35,557.42,847.67,556.9,854.84,560.36Z" transform="translate(-3.61 -93.76)" style="fill:#e61818"/><path d="M894,609.19c-.35-.43-.61-26.82-.81-28.08-3.36-20.73-34-8.36-36-12.38a36,36,0,0,0-2.59-3.34c-6,6.24-14.17,16.64-8.44,15.84,9.22-1.3,32.39-9.12,34.23-6.56,1,1.44,1.23,23.46.48,32.91-.21,2.81-4.64,7.3-6.82,9.08,2.71,0,21.33-.13,26.39-.13C898.22,614.14,894,609.19,894,609.19Z" transform="translate(-3.61 -93.76)" style="fill:#e61818"/><path d="M878.58,579.94a4.87,4.87,0,0,0-.82-.42,8.53,8.53,0,0,0-2.42.15c-29.64,4.3-30.72,23.9-30.61,25.92,1.11,19,30.26,7.81,30.83,7.21,2.76-3-6.55-2.32-12.44-6.85C854.24,599.13,857.06,586,878.58,579.94Z" transform="translate(-3.61 -93.76)" style="fill:#e61818"/><path d="M900.84,586C900,588.92,897,615,924,616.18c5.09.23,17.17,0,17.88-9.3-4.48,4.93-12,6.43-18.4,4.68-22.12-6-14.53-48.84,8.3-36.57,3.35,1.81,5.29,5.46,7.53,8.54q.29-7.47-.06-14.95c-3.23,3.22-5.93,1.43-7,1C912.43,562.53,902.48,580.18,900.84,586Z" transform="translate(-3.61 -93.76)" style="fill:#e61818"/></svg>
